# xmcd CD database file
#
# Track frame offsets:
#	182
#	19727
#	40872
#	61262
#	74595
#	97522
#	115707
#	144055
#	159992
#	172790
#	189825
#	205962
#
# Disc length: 3011 seconds
#
# Revision: 3
# Processed by: cddbd v1.5.2PL0 Copyright (c) Steve Scherf et al.
# Submitted via: CDex 1.51
#
DISCID=8a0bc10c
DTITLE=Blue Rider Trio - Preachin´ The Blues
DYEAR=1990
DGENRE=Blues
TTITLE0=Preachin´ the Blues
TTITLE1=Stomp Down Rider
TTITLE2=Gallows Pole
TTITLE3=Old Blue Goose
TTITLE4=Early Morning Blues
TTITLE5=Cincinnati Rag
TTITLE6=Pay Day
TTITLE7=Walkin´ Blues
TTITLE8=Georgia Rag
TTITLE9=Freight Train Boogie
TTITLE10=Statesboro Blues
TTITLE11=She Don´t Do Me Wrong 
EXTD=YEAR: 1990
EXTT0=
EXTT1=
EXTT2=
EXTT3=
EXTT4=
EXTT5=
EXTT6=
EXTT7=
EXTT8=
EXTT9=
EXTT10=
EXTT11=
PLAYORDER=
